<svg xmlns="http://www.w3.org/2000/svg" width="41.4" height="41.95" viewBox="5 5 41.4 41.95" fill="none">
<path d="M5 10C5 7.23858 7.23858 5 10 5H38C40.7614 5 43 7.23858 43 10V38C43 40.7614 40.7614 43 38 43H10C7.23858 43 5 40.7614 5 38V10Z" fill="url(#itpaint0_linear_43074_32343)"/>
<path d="M5 10C5 7.23858 7.23858 5 10 5H38C40.7614 5 43 7.23858 43 10V38C43 40.7614 40.7614 43 38 43H10C7.23858 43 5 40.7614 5 38V10Z" fill="url(#itpaint1_radial_43074_32343)" fill-opacity="0.2"/>
<path fill-rule="evenodd" clip-rule="evenodd" d="M38 6H10C7.79086 6 6 7.79086 6 10V38C6 40.2091 7.79086 42 10 42H38C40.2091 42 42 40.2091 42 38V10C42 7.79086 40.2091 6 38 6ZM10 5C7.23858 5 5 7.23858 5 10V38C5 40.7614 7.23858 43 10 43H38C40.7614 43 43 40.7614 43 38V10C43 7.23858 40.7614 5 38 5H10Z" fill="url(#itpaint2_linear_43074_32343)"/>
<path d="M 35.7125 22.89485L 30.781 14.31905C 30.596 13.99005 30.328 13.7152 30.0035 13.5218C 29.679 13.3284 29.31 13.22315 28.9325 13.21655H 19.068C 18.6905 13.22315 18.3215 13.3284 17.997 13.5218C 17.6725 13.7152 17.4045 13.99005 17.2195 14.31905L 12.2865 22.87535C 12.0985 23.2016 12 23.57145 12 23.94785C 12 24.3242 12.0985 24.69405 12.2865 25.0204L 17.217 33.64565C 17.4005 33.97925 17.6675 34.2597 17.991 34.4597C 18.315 34.65975 18.6855 34.77255 19.066 34.78715H 28.93C 29.3105 34.7744 29.6815 34.66295 30.006 34.46375C 30.3305 34.26455 30.5975 33.9844 30.781 33.6509L 35.7125 25.07515C 35.901 24.74365 36 24.36885 36 23.9876C 36 23.6063 35.901 23.2316 35.7125 22.9001V 22.89485Z" fill="#4285F4"/>
<path opacity="0.07" d="M 30.781 33.6426L 34.0675 27.92595L 27.1155 20.97475L 24 20.14075L 21.2005 21.18475L 20.118 24.00035L 20.988 27.1377L 28.632 34.7789H 28.9325C 29.3125 34.7657 29.6835 34.6541 30.0075 34.45495C 30.332 34.25575 30.5995 33.9759 30.7835 33.6426H 30.781Z" fill="black"/>
<path d="M 24.0005 19.65035C 22.9205 19.65005 21.879 20.0514 21.0785 20.7764C 20.278 21.50145 19.776 22.4982 19.67 23.57285C 19.564 24.64755 19.861 25.7233 20.5045 26.5909C 21.1475 27.45845 22.09 28.05585 23.149 28.26675C 24.2085 28.47775 25.308 28.28725 26.2345 27.7323C 27.161 27.17735 27.848 26.29765 28.1615 25.2643C 28.4755 24.231 28.3935 23.11785 27.932 22.1415C 27.4705 21.1652 26.6625 20.39535 25.6645 19.9819C 25.137 19.7632 24.5715 19.6505 24.0005 19.65035ZM 24.0005 27.3006C 23.237 27.30065 22.497 27.03605 21.9065 26.55175C 21.3165 26.0675 20.9125 25.3935 20.7635 24.6447C 20.6145 23.89585 20.7295 23.11855 21.0895 22.4452C 21.449 21.7718 22.0315 21.244 22.737 20.95175C 23.442 20.65945 24.227 20.62085 24.9575 20.8424C 25.6885 21.06395 26.3195 21.53205 26.7435 22.16675C 27.168 22.8016 27.359 23.56385 27.284 24.3237C 27.2095 25.08345 26.8735 25.79385 26.3335 26.3338C 25.715 26.95275 24.8755 27.3005 24.0005 27.3006Z" fill="white"/>
<path d="M 21.937 23.82845V 25.1785C 22.137 25.52225 22.419 25.81085 22.758 26.01855V 23.82845H 21.937Z" fill="white"/>
<path d="M 23.5625 22.6848V 26.3299C 23.8335 26.38165 24.1125 26.38165 24.3835 26.3299V 22.6848H 23.5625Z" fill="white"/>
<path d="M 25.2685 24.3911V 25.99615C 25.6135 25.7799 25.8975 25.47915 26.0935 25.12235V 24.3911H 25.2685Z" fill="white"/>
<path d="M 27.1285 26.67715L 26.6785 27.12715C 26.641 27.1656 26.62 27.2171 26.62 27.2708C 26.62 27.3245 26.641 27.37605 26.6785 27.41445L 28.3865 29.12225C 28.425 29.1604 28.477 29.182 28.531 29.18225C 28.585 29.1821 28.637 29.16055 28.675 29.12225L 29.125 28.6722C 29.144 28.6534 29.159 28.6311 29.169 28.6065C 29.179 28.5819 29.1845 28.5556 29.1845 28.52895C 29.1845 28.50235 29.179 28.476 29.169 28.4514C 29.159 28.4269 29.144 28.40455 29.125 28.3857L 27.4155 26.67565C 27.3775 26.6378 27.326 26.61655 27.272 26.61655C 27.2185 26.61655 27.1665 26.6378 27.1285 26.67565V 26.67715Z" fill="white"/>
<path d="M38.0003 35.7611C38.0003 35.0349 37.1485 34.6431 36.5971 35.1157L31.9433 39.1046C31.5843 39.4123 31.5454 39.9539 31.8568 40.3097L36.5106 45.6283C37.0274 46.219 38.0003 45.8534 38.0003 45.0686V35.7611Z" fill="url(#itpaint6_linear_43074_32343)"/>
<path d="M38.9997 35.7611C38.9997 35.0349 39.8515 34.6431 40.4029 35.1157L45.0567 39.1046C45.4157 39.4123 45.4546 39.9539 45.1432 40.3097L40.4894 45.6283C39.9726 46.219 38.9997 45.8534 38.9997 45.0686V35.7611Z" fill="url(#itpaint7_linear_43074_32343)"/>
<path fill-rule="evenodd" clip-rule="evenodd" d="M35.9463 34.3564L31.2926 38.3454C30.5112 39.0151 30.4266 40.1937 31.1042 40.9682L35.758 46.2868C36.5407 47.1813 37.8039 47.0682 38.5 46.3412C39.1961 47.0682 40.4593 47.1813 41.242 46.2868L45.8958 40.9682C46.5735 40.1937 46.4888 39.0151 45.7075 38.3454L41.0537 34.3564C40.2432 33.6617 39.1344 33.8252 38.5 34.4914C37.8656 33.8252 36.7568 33.6617 35.9463 34.3564ZM31.9433 39.1046L36.5971 35.1157C37.142 34.6486 37.9802 35.0257 37.9999 35.7355C38.0002 35.744 38.0003 35.7525 38.0003 35.761V45.0686C38.0003 45.0772 38.0002 45.0858 37.9999 45.0943C37.9789 45.8613 37.0217 46.2125 36.5106 45.6283L31.8568 40.3097C31.5455 39.9539 31.5843 39.4123 31.9433 39.1046ZM40.4029 35.1157C39.8581 34.6486 39.0198 35.0257 39.0001 35.7355C38.9999 35.744 38.9998 35.7525 38.9998 35.761V45.0686C38.9998 45.0772 38.9999 45.0858 39.0001 45.0943C39.0211 45.8613 39.9783 46.2125 40.4894 45.6283L45.1432 40.3097C45.4546 39.9539 45.4157 39.4123 45.0567 39.1046L40.4029 35.1157Z" fill="#F5F5F5"/>
<defs>
<linearGradient id="itpaint0_linear_43074_32343" x1="15.5556" y1="5" x2="20.3624" y2="43.4547" gradientUnits="userSpaceOnUse">
<stop stop-color="white"/>
<stop offset="1" stop-color="#EBEBEB"/>
</linearGradient>
<radialGradient id="itpaint1_radial_43074_32343" cx="0" cy="0" r="1" gradientUnits="userSpaceOnUse" gradientTransform="translate(17.1389 14.8958) rotate(56.3099) scale(36.1557 31.2886)">
<stop offset="0.177083" stop-color="white"/>
<stop offset="1" stop-color="#B8B8B8"/>
</radialGradient>
<linearGradient id="itpaint2_linear_43074_32343" x1="17.2708" y1="5" x2="22.3873" y2="43.3734" gradientUnits="userSpaceOnUse">
<stop stop-color="#BBBBBB"/>
<stop offset="1" stop-color="#888888"/>
</linearGradient>
<linearGradient id="itpaint3_linear_43074_32343" x1="15" y1="13" x2="36.5643" y2="30.6436" gradientUnits="userSpaceOnUse">
<stop stop-color="#008EE6"/>
<stop offset="1" stop-color="#006094"/>
</linearGradient>
<linearGradient id="itpaint4_linear_43074_32343" x1="15" y1="13" x2="36.5643" y2="30.6436" gradientUnits="userSpaceOnUse">
<stop stop-color="#008EE6"/>
<stop offset="1" stop-color="#006094"/>
</linearGradient>
<linearGradient id="itpaint5_linear_43074_32343" x1="15" y1="13" x2="36.5643" y2="30.6436" gradientUnits="userSpaceOnUse">
<stop stop-color="#008EE6"/>
<stop offset="1" stop-color="#006094"/>
</linearGradient>
<linearGradient id="itpaint6_linear_43074_32343" x1="31.6465" y1="34.9094" x2="42.3984" y2="48.2941" gradientUnits="userSpaceOnUse">
<stop stop-color="#008EE6"/>
<stop offset="1" stop-color="#006094"/>
</linearGradient>
<linearGradient id="itpaint7_linear_43074_32343" x1="31.6465" y1="34.9094" x2="42.3984" y2="48.2941" gradientUnits="userSpaceOnUse">
<stop stop-color="#008EE6"/>
<stop offset="1" stop-color="#006094"/>
</linearGradient>
</defs>
</svg>
